<mxfile host="app.diagrams.net" agent="Mozilla/5.0 (Windows NT 10.0; Win64; x64) AppleWebKit/537.36 (KHTML, like Gecko) Chrome/130.0.0.0 Safari/537.36" version="24.8.3">
  <diagram name="Page-1" id="tIp-bu4B926cYa7FjnG_">
    <mxGraphModel dx="1650" dy="1525" grid="1" gridSize="10" guides="1" tooltips="1" connect="1" arrows="1" fold="1" page="1" pageScale="1" pageWidth="850" pageHeight="1100" math="0" shadow="0">
      <root>
        <mxCell id="0" />
        <mxCell id="1" parent="0" />
        <mxCell id="HC5_enfKzyLUJwnpE826-1" value="Usuário" style="shape=umlActor;verticalLabelPosition=bottom;verticalAlign=top;html=1;outlineConnect=0;" parent="1" vertex="1">
          <mxGeometry x="-440" y="186" width="45" height="90" as="geometry" />
        </mxCell>
        <mxCell id="HC5_enfKzyLUJwnpE826-2" value="Gerenciar usuário" style="ellipse;whiteSpace=wrap;html=1;" parent="1" vertex="1">
          <mxGeometry x="-190" y="56" width="120" height="60" as="geometry" />
        </mxCell>
        <mxCell id="HC5_enfKzyLUJwnpE826-3" value="Realizar cadastro" style="ellipse;whiteSpace=wrap;html=1;" parent="1" vertex="1">
          <mxGeometry x="40" y="-4" width="120" height="60" as="geometry" />
        </mxCell>
        <mxCell id="HC5_enfKzyLUJwnpE826-4" value="Receber notificações" style="ellipse;whiteSpace=wrap;html=1;" parent="1" vertex="1">
          <mxGeometry x="-190" y="166" width="120" height="60" as="geometry" />
        </mxCell>
        <mxCell id="HC5_enfKzyLUJwnpE826-5" value="Criar tarefa" style="ellipse;whiteSpace=wrap;html=1;" parent="1" vertex="1">
          <mxGeometry x="-190" y="266" width="120" height="60" as="geometry" />
        </mxCell>
        <mxCell id="HC5_enfKzyLUJwnpE826-12" value="" style="endArrow=classic;html=1;rounded=0;entryX=0;entryY=0.667;entryDx=0;entryDy=0;entryPerimeter=0;" parent="1" target="HC5_enfKzyLUJwnpE826-2" edge="1">
          <mxGeometry width="50" height="50" relative="1" as="geometry">
            <mxPoint x="-390" y="216" as="sourcePoint" />
            <mxPoint x="-340" y="166" as="targetPoint" />
          </mxGeometry>
        </mxCell>
        <mxCell id="HC5_enfKzyLUJwnpE826-13" value="" style="endArrow=classic;html=1;rounded=0;entryX=0;entryY=0.5;entryDx=0;entryDy=0;" parent="1" target="HC5_enfKzyLUJwnpE826-4" edge="1">
          <mxGeometry width="50" height="50" relative="1" as="geometry">
            <mxPoint x="-390" y="226" as="sourcePoint" />
            <mxPoint x="-230" y="206" as="targetPoint" />
          </mxGeometry>
        </mxCell>
        <mxCell id="HC5_enfKzyLUJwnpE826-14" value="" style="endArrow=classic;html=1;rounded=0;entryX=0;entryY=0.5;entryDx=0;entryDy=0;" parent="1" source="HC5_enfKzyLUJwnpE826-1" target="HC5_enfKzyLUJwnpE826-5" edge="1">
          <mxGeometry width="50" height="50" relative="1" as="geometry">
            <mxPoint x="-380" y="236" as="sourcePoint" />
            <mxPoint x="-220" y="286" as="targetPoint" />
          </mxGeometry>
        </mxCell>
        <mxCell id="HC5_enfKzyLUJwnpE826-15" value="" style="endArrow=classic;html=1;rounded=0;entryX=0.012;entryY=0.356;entryDx=0;entryDy=0;entryPerimeter=0;" parent="1" source="HC5_enfKzyLUJwnpE826-1" target="HC5_enfKzyLUJwnpE826-18" edge="1">
          <mxGeometry width="50" height="50" relative="1" as="geometry">
            <mxPoint x="-370" y="316" as="sourcePoint" />
            <mxPoint x="-250" y="356" as="targetPoint" />
          </mxGeometry>
        </mxCell>
        <mxCell id="HC5_enfKzyLUJwnpE826-18" value="Editar tarefa" style="ellipse;whiteSpace=wrap;html=1;" parent="1" vertex="1">
          <mxGeometry x="-190" y="366" width="120" height="60" as="geometry" />
        </mxCell>
        <mxCell id="HC5_enfKzyLUJwnpE826-19" value="Realizar login" style="ellipse;whiteSpace=wrap;html=1;" parent="1" vertex="1">
          <mxGeometry x="40" y="106" width="120" height="60" as="geometry" />
        </mxCell>
        <mxCell id="HC5_enfKzyLUJwnpE826-20" value="&amp;lt;&amp;lt;extends&amp;gt;&amp;gt;" style="html=1;verticalAlign=bottom;endArrow=open;dashed=1;endSize=8;curved=0;rounded=0;exitX=0;exitY=0.5;exitDx=0;exitDy=0;" parent="1" source="HC5_enfKzyLUJwnpE826-3" target="HC5_enfKzyLUJwnpE826-2" edge="1">
          <mxGeometry relative="1" as="geometry">
            <mxPoint y="25.409999999999997" as="sourcePoint" />
            <mxPoint x="-80" y="25.409999999999997" as="targetPoint" />
          </mxGeometry>
        </mxCell>
        <mxCell id="HC5_enfKzyLUJwnpE826-21" value="&amp;lt;&amp;lt;extends&amp;gt;&amp;gt;" style="html=1;verticalAlign=bottom;endArrow=open;dashed=1;endSize=8;curved=0;rounded=0;exitX=0;exitY=0.333;exitDx=0;exitDy=0;exitPerimeter=0;entryX=0.934;entryY=0.826;entryDx=0;entryDy=0;entryPerimeter=0;" parent="1" source="HC5_enfKzyLUJwnpE826-19" target="HC5_enfKzyLUJwnpE826-2" edge="1">
          <mxGeometry relative="1" as="geometry">
            <mxPoint y="86" as="sourcePoint" />
            <mxPoint x="-83" y="118.59" as="targetPoint" />
          </mxGeometry>
        </mxCell>
        <mxCell id="HC5_enfKzyLUJwnpE826-22" value="&amp;lt;&amp;lt;include&amp;gt;&amp;gt;" style="endArrow=open;endSize=12;dashed=1;html=1;rounded=0;entryX=0.037;entryY=0.797;entryDx=0;entryDy=0;entryPerimeter=0;exitX=1;exitY=0.5;exitDx=0;exitDy=0;" parent="1" source="HC5_enfKzyLUJwnpE826-18" target="HC5_enfKzyLUJwnpE826-17" edge="1">
          <mxGeometry width="160" relative="1" as="geometry">
            <mxPoint x="-30" y="386" as="sourcePoint" />
            <mxPoint x="90" y="395" as="targetPoint" />
          </mxGeometry>
        </mxCell>
        <mxCell id="HC5_enfKzyLUJwnpE826-29" value="" style="swimlane;startSize=0;" parent="1" vertex="1">
          <mxGeometry x="-240" y="-14" width="650" height="550" as="geometry">
            <mxRectangle x="240" y="-10" width="50" height="40" as="alternateBounds" />
          </mxGeometry>
        </mxCell>
        <mxCell id="HC5_enfKzyLUJwnpE826-33" value="Excluir tarefa" style="ellipse;whiteSpace=wrap;html=1;" parent="HC5_enfKzyLUJwnpE826-29" vertex="1">
          <mxGeometry x="50" y="474" width="120" height="60" as="geometry" />
        </mxCell>
        <mxCell id="HC5_enfKzyLUJwnpE826-36" value="Confirmar a exclusão da tarfea" style="ellipse;whiteSpace=wrap;html=1;" parent="HC5_enfKzyLUJwnpE826-29" vertex="1">
          <mxGeometry x="290" y="474" width="120" height="60" as="geometry" />
        </mxCell>
        <mxCell id="HC5_enfKzyLUJwnpE826-38" value="&amp;lt;&amp;lt;extends&amp;gt;&amp;gt;" style="html=1;verticalAlign=bottom;endArrow=open;dashed=1;endSize=8;curved=0;rounded=0;exitX=0;exitY=0.5;exitDx=0;exitDy=0;entryX=1;entryY=0.333;entryDx=0;entryDy=0;entryPerimeter=0;" parent="HC5_enfKzyLUJwnpE826-29" source="HC5_enfKzyLUJwnpE826-36" edge="1">
          <mxGeometry relative="1" as="geometry">
            <mxPoint x="250" y="464" as="sourcePoint" />
            <mxPoint x="170" y="505" as="targetPoint" />
          </mxGeometry>
        </mxCell>
        <mxCell id="HC5_enfKzyLUJwnpE826-25" value="Alterar o status da tarefa" style="ellipse;whiteSpace=wrap;html=1;" parent="HC5_enfKzyLUJwnpE826-29" vertex="1">
          <mxGeometry x="290" y="384" width="120" height="60" as="geometry" />
        </mxCell>
        <mxCell id="SBNmersMZkAzePCQshAH-1" value="&amp;lt;&amp;lt;extends&amp;gt;&amp;gt;" style="html=1;verticalAlign=bottom;endArrow=open;dashed=1;endSize=8;curved=0;rounded=0;exitX=0;exitY=0.5;exitDx=0;exitDy=0;entryX=1;entryY=0.333;entryDx=0;entryDy=0;entryPerimeter=0;" edge="1" parent="HC5_enfKzyLUJwnpE826-29">
          <mxGeometry relative="1" as="geometry">
            <mxPoint x="290" y="413.5" as="sourcePoint" />
            <mxPoint x="170" y="414.5" as="targetPoint" />
          </mxGeometry>
        </mxCell>
        <mxCell id="SBNmersMZkAzePCQshAH-2" value="&amp;lt;&amp;lt;extends&amp;gt;&amp;gt;" style="html=1;verticalAlign=bottom;endArrow=open;dashed=1;endSize=8;curved=0;rounded=0;exitX=0;exitY=0.5;exitDx=0;exitDy=0;entryX=1;entryY=0.333;entryDx=0;entryDy=0;entryPerimeter=0;" edge="1" parent="HC5_enfKzyLUJwnpE826-29">
          <mxGeometry relative="1" as="geometry">
            <mxPoint x="290" y="314" as="sourcePoint" />
            <mxPoint x="170" y="315" as="targetPoint" />
          </mxGeometry>
        </mxCell>
        <mxCell id="HC5_enfKzyLUJwnpE826-17" value="Visualizar tarefa" style="ellipse;whiteSpace=wrap;html=1;" parent="HC5_enfKzyLUJwnpE826-29" vertex="1">
          <mxGeometry x="290" y="284" width="120" height="60" as="geometry" />
        </mxCell>
        <mxCell id="HC5_enfKzyLUJwnpE826-34" value="" style="endArrow=classic;html=1;rounded=0;entryX=0.032;entryY=0.325;entryDx=0;entryDy=0;entryPerimeter=0;" parent="1" source="HC5_enfKzyLUJwnpE826-1" target="HC5_enfKzyLUJwnpE826-33" edge="1">
          <mxGeometry width="50" height="50" relative="1" as="geometry">
            <mxPoint x="-395" y="386" as="sourcePoint" />
            <mxPoint x="-345" y="336" as="targetPoint" />
          </mxGeometry>
        </mxCell>
      </root>
    </mxGraphModel>
  </diagram>
</mxfile>
